REM DIRINDEX 1\2,1\4,1\3\5,1\3\6,1\3\7
REM DIRNAME folder01,folder02,folder03,folder04,folder05,folder06,folder07
TITLE ""
FILE "CD3Track43.mp3" MP3
  TRACK 01 AUDIO
    TITLE "0:"
    INDEX 01 00:00:00
  TRACK 02 AUDIO
    TITLE "4:cjc081_3082"
    INDEX 01 00:00:29
  TRACK 03 AUDIO
    TITLE "0:"
    INDEX 01 00:04:38
  TRACK 04 AUDIO
    TITLE "5:cjc081_3083"
    INDEX 01 00:05:09
  TRACK 05 AUDIO
    TITLE "0:"
    INDEX 01 00:06:26
  TRACK 06 AUDIO
    TITLE "6:cjc081_3084"
    INDEX 01 00:06:73
  TRACK 07 AUDIO
    TITLE "0:"
    INDEX 01 00:08:13
  TRACK 08 AUDIO
    TITLE "5:cjc081_3085"
    INDEX 01 00:08:54
  TRACK 09 AUDIO
    TITLE "0:"
    INDEX 01 00:10:06
  TRACK 10 AUDIO
    TITLE "6:cjc081_3086"
    INDEX 01 00:10:49
  TRACK 11 AUDIO
    TITLE "0:"
    INDEX 01 00:13:02
  TRACK 12 AUDIO
    TITLE "5:cjc081_3087"
    INDEX 01 00:13:47
  TRACK 13 AUDIO
    TITLE "0:"
    INDEX 01 00:14:70
  TRACK 14 AUDIO
    TITLE "6:cjc081_3088"
    INDEX 01 00:15:38
  TRACK 15 AUDIO
    TITLE "0:"
    INDEX 01 00:17:45
  TRACK 16 AUDIO
    TITLE "5:cjc081_3089"
    INDEX 01 00:18:15
  TRACK 17 AUDIO
    TITLE "0:"
    INDEX 01 00:19:40
  TRACK 18 AUDIO
    TITLE "6:cjc081_3090"
    INDEX 01 00:20:08
  TRACK 19 AUDIO
    TITLE "0:"
    INDEX 01 00:24:20
  TRACK 20 AUDIO
    TITLE "5:cjc081_3091"
    INDEX 01 00:24:67
  TRACK 21 AUDIO
    TITLE "0:"
    INDEX 01 00:26:26
  TRACK 22 AUDIO
    TITLE "6:cjc081_3092"
    INDEX 01 00:26:67
  TRACK 23 AUDIO
    TITLE "0:"
    INDEX 01 00:28:17
  TRACK 24 AUDIO
    TITLE "5:cjc081_3093"
    INDEX 01 00:28:62
  TRACK 25 AUDIO
    TITLE "0:"
    INDEX 01 00:30:10
  TRACK 26 AUDIO
    TITLE "6:cjc081_3094"
    INDEX 01 00:30:55
  TRACK 27 AUDIO
    TITLE "0:"
    INDEX 01 00:32:50
  TRACK 28 AUDIO
    TITLE "5:cjc081_3095"
    INDEX 01 00:33:15
  TRACK 29 AUDIO
    TITLE "0:"
    INDEX 01 00:34:22
  TRACK 30 AUDIO
    TITLE "6:cjc081_3096"
    INDEX 01 00:34:71
  TRACK 31 AUDIO
    TITLE "0:"
    INDEX 01 00:36:17
  TRACK 32 AUDIO
    TITLE "5:cjc081_3097"
    INDEX 01 00:36:60
  TRACK 33 AUDIO
    TITLE "0:"
    INDEX 01 00:38:20
  TRACK 34 AUDIO
    TITLE "6:cjc081_3098"
    INDEX 01 00:38:67
  TRACK 35 AUDIO
    TITLE "0:"
    INDEX 01 00:43:64
  TRACK 36 AUDIO
    TITLE "5:cjc081_3099"
    INDEX 01 00:44:36
  TRACK 37 AUDIO
    TITLE "0:"
    INDEX 01 00:46:11
  TRACK 38 AUDIO
    TITLE "6:cjc081_3100"
    INDEX 01 00:46:60
  TRACK 39 AUDIO
    TITLE "0:"
    INDEX 01 00:49:18
  TRACK 40 AUDIO
    TITLE "5:cjc081_3101"
    INDEX 01 00:49:65
  TRACK 41 AUDIO
    TITLE "0:"
    INDEX 01 00:51:18
  TRACK 42 AUDIO
    TITLE "6:cjc081_3102"
    INDEX 01 00:51:65
  TRACK 43 AUDIO
    TITLE "0:"
    INDEX 01 00:53:64
  TRACK 44 AUDIO
    TITLE "5:cjc081_3103"
    INDEX 01 00:54:34
  TRACK 45 AUDIO
    TITLE "0:"
    INDEX 01 00:56:04
  TRACK 46 AUDIO
    TITLE "6:cjc081_3104"
    INDEX 01 00:56:53
  TRACK 47 AUDIO
    TITLE "0:"
    INDEX 01 00:57:72
  TRACK 48 AUDIO
    TITLE "5:cjc081_3105"
    INDEX 01 00:58:40
  TRACK 49 AUDIO
    TITLE "0:"
    INDEX 01 01:00:39
  TRACK 50 AUDIO
    TITLE "6:cjc081_3106"
    INDEX 01 01:01:11
  TRACK 51 AUDIO
    TITLE "0:"
    INDEX 01 01:03:29
  TRACK 52 AUDIO
    TITLE "5:cjc081_3107"
    INDEX 01 01:03:71
  TRACK 53 AUDIO
    TITLE "0:"
    INDEX 01 01:05:11
  TRACK 54 AUDIO
    TITLE "6:cjc081_3108"
    INDEX 01 01:05:58
  TRACK 55 AUDIO
    TITLE "0:"
    INDEX 01 01:07:23
  TRACK 56 AUDIO
    TITLE "5:cjc081_3109"
    INDEX 01 01:07:68
  TRACK 57 AUDIO
    TITLE "0:"
    INDEX 01 01:09:44
  TRACK 58 AUDIO
    TITLE "6:cjc081_3110"
    INDEX 01 01:10:12
  TRACK 59 AUDIO
    TITLE "0:"
    INDEX 01 01:12:26
  TRACK 60 AUDIO
    TITLE "5:cjc081_3111"
    INDEX 01 01:12:68
  TRACK 61 AUDIO
    TITLE "0:"
    INDEX 01 01:14:23
  TRACK 62 AUDIO
    TITLE "6:cjc081_3112"
    INDEX 01 01:14:72
  TRACK 63 AUDIO
    TITLE "0:"
    INDEX 01 01:17:35
  TRACK 64 AUDIO
    TITLE "5:cjc081_3113"
    INDEX 01 01:18:09
  TRACK 65 AUDIO
    TITLE "0:"
    INDEX 01 01:19:30
  TRACK 66 AUDIO
    TITLE "6:cjc081_3114"
    INDEX 01 01:19:74
  TRACK 67 AUDIO
    TITLE "0:"
    INDEX 01 01:21:16
  TRACK 68 AUDIO
    TITLE "5:cjc081_3115"
    INDEX 01 01:21:59
  TRACK 69 AUDIO
    TITLE "0:"
    INDEX 01 01:23:16
  TRACK 70 AUDIO
    TITLE "6:cjc081_3116"
    INDEX 01 01:23:60
  TRACK 71 AUDIO
    TITLE "0:"
    INDEX 01 01:25:74
  TRACK 72 AUDIO
    TITLE "5:cjc081_3117"
    INDEX 01 01:26:42
  TRACK 73 AUDIO
    TITLE "0:"
    INDEX 01 01:28:08
  TRACK 74 AUDIO
    TITLE "6:cjc081_3118"
    INDEX 01 01:28:53
  TRACK 75 AUDIO
    TITLE "0:"
    INDEX 01 01:30:54
  TRACK 76 AUDIO
    TITLE "5:cjc081_3119"
    INDEX 01 01:31:24
  TRACK 77 AUDIO
    TITLE "0:"
    INDEX 01 01:32:45
  TRACK 78 AUDIO
    TITLE "6:cjc081_3120"
    INDEX 01 01:33:13
  TRACK 79 AUDIO
    TITLE "0:"
    INDEX 01 01:35:20
  TRACK 80 AUDIO
    TITLE "5:cjc081_3121"
    INDEX 01 01:35:63
  TRACK 81 AUDIO
    TITLE "0:"
    INDEX 01 01:37:15
  TRACK 82 AUDIO
    TITLE "6:cjc081_3122"
    INDEX 01 01:37:60
  TRACK 83 AUDIO
    TITLE "0:"
    INDEX 01 01:38:71
  TRACK 84 AUDIO
    TITLE "5:cjc081_3123"
    INDEX 01 01:39:41
  TRACK 85 AUDIO
    TITLE "0:"
    INDEX 01 01:41:01
  TRACK 86 AUDIO
    TITLE "6:cjc081_3124"
    INDEX 01 01:41:48
  TRACK 87 AUDIO
    TITLE "0:"
    INDEX 01 01:43:54
  TRACK 88 AUDIO
    TITLE "5:cjc081_3125"
    INDEX 01 01:44:23
  TRACK 89 AUDIO
    TITLE "0:"
    INDEX 01 01:45:40
  TRACK 90 AUDIO
    TITLE "6:cjc081_3126"
    INDEX 01 01:46:10
  TRACK 91 AUDIO
    TITLE "0:"
    INDEX 01 01:47:56
  TRACK 92 AUDIO
    TITLE "5:cjc081_3127"
    INDEX 01 01:48:20
  TRACK 93 AUDIO
    TITLE "0:"
    INDEX 01 01:50:09
  TRACK 94 AUDIO
    TITLE "6:cjc081_3128"
    INDEX 01 01:50:51
  TRACK 95 AUDIO
    TITLE "0:"
    INDEX 01 01:53:14
  TRACK 96 AUDIO
    TITLE "5:cjc081_3129"
    INDEX 01 01:53:59
  TRACK 97 AUDIO
    TITLE "0:"
    INDEX 01 01:54:68
  TRACK 98 AUDIO
    TITLE "6:cjc081_3130"
    INDEX 01 01:55:38
  TRACK 99 AUDIO
    TITLE "0:"
    INDEX 01 01:57:58
  TRACK 100 AUDIO
    TITLE "5:cjc081_3131"
    INDEX 01 01:58:27
  TRACK 101 AUDIO
    TITLE "0:"
    INDEX 01 01:59:36
  TRACK 102 AUDIO
    TITLE "6:cjc081_3132"
    INDEX 01 02:00:08
  TRACK 103 AUDIO
    TITLE "0:"
    INDEX 01 02:02:09
  TRACK 104 AUDIO
    TITLE "5:cjc081_3133"
    INDEX 01 02:02:54
  TRACK 105 AUDIO
    TITLE "0:"
    INDEX 01 02:03:67
  TRACK 106 AUDIO
    TITLE "6:cjc081_3134"
    INDEX 01 02:04:39
  TRACK 107 AUDIO
    TITLE "0:"
    INDEX 01 02:05:50
  TRACK 108 AUDIO
    TITLE "5:cjc081_3135"
    INDEX 01 02:06:18
  TRACK 109 AUDIO
    TITLE "0:"
    INDEX 01 02:07:29
  TRACK 110 AUDIO
    TITLE "6:cjc081_3136"
    INDEX 01 02:08:03
  TRACK 111 AUDIO
    TITLE "0:"
    INDEX 01 02:10:08
  TRACK 112 AUDIO
    TITLE "5:cjc081_3137"
    INDEX 01 02:10:47
  TRACK 113 AUDIO
    TITLE "0:"
    INDEX 01 02:12:21
  TRACK 114 AUDIO
    TITLE "6:cjc081_3138"
    INDEX 01 02:12:62
  TRACK 115 AUDIO
    TITLE "0:"
    INDEX 01 02:14:55
  TRACK 116 AUDIO
    TITLE "5:cjc081_3139"
    INDEX 01 02:15:25
  TRACK 117 AUDIO
    TITLE "0:"
    INDEX 01 02:16:72
  TRACK 118 AUDIO
    TITLE "6:cjc081_3140"
    INDEX 01 02:17:34
  TRACK 119 AUDIO
    TITLE "0:"
    INDEX 01 02:19:15
  TRACK 120 AUDIO
    TITLE "7:cjc081_3141"
    INDEX 01 02:20:50
  TRACK 121 AUDIO
    TITLE "0:"
    INDEX 01 02:32:29
